<?xml version="1.0" encoding="UTF-8" standalone="no"?>
<svg width="14px" height="15px" viewBox="0 0 14 15" version="1.1" xmlns="http://www.w3.org/2000/svg" xmlns:xlink="http://www.w3.org/1999/xlink">
    <!-- Generator: Sketch 41 (35326) - http://www.bohemiancoding.com/sketch -->
    <title>calendar</title>
    <desc>Created with Sketch.</desc>
    <defs></defs>
    <g id="Symbols" stroke="none" stroke-width="1" fill="none" fill-rule="evenodd">
        <g id="Custom-Cal-Min" transform="translate(-108.000000, -77.000000)" fill="#7EC141">
            <g transform="translate(6.000000, 0.000000)" id="Input">
                <g transform="translate(14.000000, 70.000000)">
                    <g id="calendar" transform="translate(88.000000, 7.000000)">
                        <path d="M13.6888889,0.9996875 L11.9460444,0.9996875 L11.9460444,0.2503125 C11.9460444,0.1121875 11.8356,0 11.6984,0 L9.95555556,0 C9.81835556,0 9.70635556,0.1121875 9.70635556,0.2503125 L9.70635556,0.9996875 L4.23173333,0.9996875 L4.23173333,0.2503125 C4.23173333,0.1121875 4.11973333,0 3.98253333,0 L2.23968889,0 C2.10248889,0 1.99048889,0.1121875 1.99048889,0.2503125 L1.99048889,0.9996875 L0.2492,0.9996875 C0.111688889,0.9996875 0,1.1121875 0,1.25 L0,14.7496875 C0,14.8878125 0.111688889,15 0.2492,15 L13.6888889,15 C13.8260889,15 13.9380889,14.8878125 13.9380889,14.7496875 L13.9380889,1.25 C13.9380889,1.1121875 13.8260889,0.9996875 13.6888889,0.9996875 Z M10.2047556,1.999375 L11.4492,1.999375 L11.4492,0.500625 L10.2047556,0.500625 L10.2047556,1.999375 Z M2.48888889,1.999375 L3.73333333,1.999375 L3.73333333,0.500625 L2.48888889,0.500625 L2.48888889,1.999375 Z M0.4984,1.5003125 L1.99048889,1.5003125 L1.99048889,2.2496875 C1.99048889,2.3878125 2.10248889,2.5 2.23968889,2.5 L3.98253333,2.5 C4.11973333,2.5 4.23173333,2.3878125 4.23173333,2.2496875 L4.23173333,1.5003125 L9.70635556,1.5003125 L9.70635556,2.2496875 C9.70635556,2.3878125 9.81835556,2.5 9.95555556,2.5 L11.6984,2.5 C11.8356,2.5 11.9460444,2.3878125 11.9460444,2.2496875 L11.9460444,1.5003125 L13.4396889,1.5003125 L13.4396889,3.75 L0.4984,3.75 L0.4984,1.5003125 Z M0.4984,14.499375 L13.4396889,14.499375 L13.4396889,4.250625 L0.4984,4.250625 L0.4984,14.499375 Z" id="Fill-1"></path>
                        <path d="M8.96031111,5.749375 L2.23968889,5.749375 L2.23968889,13.000625 L11.6984,13.000625 L11.6984,5.749375 L8.96031111,5.749375 Z M7.21746667,8.000625 L8.96031111,8.000625 L8.96031111,6.25 L7.21746667,6.25 L7.21746667,8.000625 Z M7.21746667,10.2503125 L8.96031111,10.2503125 L8.96031111,8.4996875 L7.21746667,8.4996875 L7.21746667,10.2503125 Z M4.97777778,10.2503125 L6.72062222,10.2503125 L6.72062222,8.4996875 L4.97777778,8.4996875 L4.97777778,10.2503125 Z M4.97777778,8.000625 L6.72062222,8.000625 L6.72062222,6.25 L4.97777778,6.25 L4.97777778,8.000625 Z M2.73808889,8.000625 L4.47937778,8.000625 L4.47937778,6.25 L2.73808889,6.25 L2.73808889,8.000625 Z M2.73808889,10.2503125 L4.47937778,10.2503125 L4.47937778,8.4996875 L2.73808889,8.4996875 L2.73808889,10.2503125 Z M2.73808889,12.5 L4.47937778,12.5 L4.47937778,10.749375 L2.73808889,10.749375 L2.73808889,12.5 Z M4.97777778,12.5 L6.72062222,12.5 L6.72062222,10.749375 L4.97777778,10.749375 L4.97777778,12.5 Z M7.21746667,12.5 L8.96031111,12.5 L8.96031111,10.749375 L7.21746667,10.749375 L7.21746667,12.5 Z M9.45715556,12.5 L11.2,12.5 L11.2,10.749375 L9.45715556,10.749375 L9.45715556,12.5 Z M9.45715556,10.2503125 L11.2,10.2503125 L11.2,8.4996875 L9.45715556,8.4996875 L9.45715556,10.2503125 Z M9.45715556,8.000625 L11.2,8.000625 L11.2,6.25 L9.45715556,6.25 L9.45715556,8.000625 Z" id="Fill-4"></path>
                    </g>
                </g>
            </g>
        </g>
    </g>
</svg>