<?xml version="1.0" encoding="UTF-8" standalone="no"?>
<svg width="35px" height="34px" viewBox="0 0 35 34" version="1.1" xmlns="http://www.w3.org/2000/svg" xmlns:xlink="http://www.w3.org/1999/xlink">
    <!-- Generator: Sketch 41 (35326) - http://www.bohemiancoding.com/sketch -->
    <title>Settings Icon</title>
    <desc>Created with Sketch.</desc>
    <defs>
        <path d="M13.7215909,5.46506786 L13.7215909,3.986858 C13.7215909,1.78497713 15.5067462,0 17.6988636,0 C19.8954507,0 21.6761364,1.78300561 21.6761364,3.986858 L21.6761364,5.3303911 C22.1383931,5.47816155 22.5887464,5.65231753 23.0254014,5.85107475 L23.9484111,4.92806504 C25.505376,3.37110014 28.0298409,3.3712261 29.579902,4.92128722 C31.1331236,6.47450884 31.1314832,8.99441909 29.5731242,10.5527781 L28.819081,11.3068212 C29.0768709,11.7944433 29.3025781,12.3014447 29.4934137,12.8250529 L30.5143312,12.8250529 C32.7162121,12.8250529 34.5011892,14.6102081 34.5011892,16.8023256 C34.5011892,18.9989127 32.7181836,20.7795983 30.5143312,20.7795983 L29.629819,20.7795983 C29.4440333,21.34982 29.2173436,21.9017397 28.9531893,22.4319382 L29.5731242,23.0518731 C31.1300891,24.608838 31.1299631,27.1333028 29.579902,28.6833639 C28.0266804,30.2365856 25.5067701,30.2349451 23.9484111,28.6765861 L23.2943752,28.0225502 C22.7743971,28.2745658 22.2339328,28.4912971 21.6761364,28.6696089 L21.6761364,29.6177932 C21.6761364,31.819674 19.8909811,33.6046512 17.6988636,33.6046512 C15.5022766,33.6046512 13.7215909,31.8216456 13.7215909,29.6177932 L13.7215909,28.5349321 C13.2097963,28.351822 12.7137027,28.1360132 12.235861,27.8900412 L11.4493161,28.6765861 C9.89235123,30.233551 7.3678864,30.2334251 5.81782528,28.6833639 C4.26460366,27.1301423 4.26624412,24.6102321 5.82460309,23.0518731 L6.712722,22.1637542 C6.50333196,21.7163695 6.32030821,21.2543266 6.16563559,20.7795983 L4.88339606,20.7795983 C2.68151518,20.7795983 0.896538055,18.994443 0.896538055,16.8023256 C0.896538055,14.6057385 2.67954366,12.8250529 4.88339606,12.8250529 L6.30204087,12.8250529 C6.45882902,12.3948628 6.63915579,11.9758825 6.84147441,11.5696494 L5.82460309,10.5527781 C4.26763819,8.99581317 4.26776416,6.47134834 5.81782528,4.92128722 C7.37104689,3.36806561 9.89095715,3.36970606 11.4493161,4.92806504 L12.4994774,5.97822634 C12.8954302,5.78625083 13.3032657,5.61473648 13.7215909,5.46506786 Z M17.8977273,20.5581395 C19.8746556,20.5581395 21.4772727,18.9651062 21.4772727,17 C21.4772727,15.0348938 19.8746556,13.4418605 17.8977273,13.4418605 C15.9207989,13.4418605 14.3181818,15.0348938 14.3181818,17 C14.3181818,18.9651062 15.9207989,20.5581395 17.8977273,20.5581395 Z" id="path-1"></path>
        <mask id="mask-2" maskContentUnits="userSpaceOnUse" maskUnits="objectBoundingBox" x="0" y="0" width="33.6046512" height="33.6046512" fill="white">
            <use xlink:href="#path-1"></use>
        </mask>
    </defs>
    <g id="Symbols" stroke="none" stroke-width="1" fill="none" fill-rule="evenodd">
        <g id="The-Card-Basic" transform="translate(-67.000000, -628.000000)">
            <g id="The-Card">
                <g id="Settings-Icon" transform="translate(67.000000, 628.000000)">
                    <path d="M18.2954545,0.0445075566 C20.2090251,0.332761954 21.6761364,1.98644163 21.6761364,3.986858 L21.6761364,5.3303911 C22.1383931,5.47816155 22.5887464,5.65231753 23.0254014,5.85107475 L23.9484111,4.92806504 C25.505376,3.37110014 28.0298409,3.3712261 29.579902,4.92128722 C31.1331236,6.47450884 31.1314832,8.99441909 29.5731242,10.5527781 L28.819081,11.3068212 C29.0768709,11.7944433 29.3025781,12.3014447 29.4934137,12.8250529 L30.5143312,12.8250529 C32.7162121,12.8250529 34.5011892,14.6102081 34.5011892,16.8023256 C34.5011892,18.9989127 32.7181836,20.7795983 30.5143312,20.7795983 L29.629819,20.7795983 C29.4440333,21.34982 29.2173436,21.9017397 28.9531893,22.4319382 L29.5731242,23.0518731 C31.1300891,24.608838 31.1299631,27.1333028 29.579902,28.6833639 C28.0266804,30.2365856 25.5067701,30.2349451 23.9484111,28.6765861 L23.2943752,28.0225502 C22.7743971,28.2745658 22.2339328,28.4912971 21.6761364,28.6696089 L21.6761364,29.6177932 C21.6761364,31.6160645 20.2058658,33.2709699 18.2954545,33.5599437 L18.2954545,20.5364235 C20.0852076,20.3397595 21.4772727,18.8314747 21.4772727,17 C21.4772727,15.1685253 20.0852076,13.6602405 18.2954545,13.4635765 L18.2954545,0.0445075566 Z" id="Rectangle-11-Copy-4" fill="#CFEED1"></path>
                    <use id="Rectangle-11" stroke="#74B63C" mask="url(#mask-2)" stroke-width="4" stroke-linecap="round" stroke-linejoin="round" xlink:href="#path-1"></use>
                </g>
            </g>
        </g>
    </g>
</svg>