<?xml version="1.0" encoding="UTF-8" standalone="no"?>
<svg width="33px" height="33px" viewBox="0 0 33 33" version="1.1" xmlns="http://www.w3.org/2000/svg" xmlns:xlink="http://www.w3.org/1999/xlink">
    <!-- Generator: Sketch 41 (35326) - http://www.bohemiancoding.com/sketch -->
    <title>Export Icon</title>
    <desc>Created with Sketch.</desc>
    <defs></defs>
    <g id="Symbols" stroke="none" stroke-width="1" fill="none" fill-rule="evenodd">
        <g id="The-Card-Basic" transform="translate(-171.000000, -626.000000)">
            <g id="The-Card">
                <g id="Export-Icon" transform="translate(171.000000, 626.000000)">
                    <polygon id="Path-4" fill="#CFEED1" points="29.8227532 14.6358794 1.46779941 31.204141 3.84953168 32.2299201 20.0652264 32.2299201 28.082788 32.0493487 29.5330767 30.1149952 29.804172 22.9702748"></polygon>
                    <path d="M32.4593077,6.03075 C32.4523269,6.006 32.4497885,5.97871154 32.4421731,5.95396154 C32.4072692,5.83719231 32.3507885,5.73311538 32.2784423,5.63919231 C32.2714615,5.62903846 32.2689231,5.61951923 32.2638462,5.60936538 L28.4187115,0.889096154 C28.0595192,0.4455 27.4096731,0.378865385 26.9660769,0.740596154 C26.5250192,1.10232692 26.45775,1.75217308 26.8201154,2.19576923 L28.6643077,4.46388462 C25.8853269,4.11675 23.3494038,4.60286538 23.2326346,4.62761538 C14.2395,6.04534615 8.07421154,14.5263462 9.48686538,23.5347115 C9.56873077,24.0455769 10.0053462,24.4073077 10.5060577,24.4073077 C10.5606346,24.4073077 10.6126731,24.4047692 10.66725,24.39525 C11.2320577,24.3057692 11.6166346,23.7777692 11.5271538,23.2123269 C10.2902885,15.3316731 15.6845192,7.90984615 23.595,6.66282692 C23.6267308,6.65775 26.2895769,6.13990385 28.9168846,6.5835 L26.1429808,8.24936538 C25.6549615,8.54446154 25.4963077,9.17907692 25.7888654,9.66773077 C26.0814231,10.1582885 26.7185769,10.3169423 27.2040577,10.0243846 L31.9909615,7.14894231 C32.01825,7.13371154 32.0379231,7.1115 32.0626731,7.09182692 C32.0779038,7.08167308 32.0975769,7.07659615 32.1147115,7.06453846 C32.1274038,7.05438462 32.1324808,7.03725 32.1445385,7.02709615 C32.2365577,6.94523077 32.3158846,6.85638462 32.373,6.74976923 C32.373,6.74723077 32.3755385,6.74469231 32.3755385,6.74469231 C32.4301154,6.64061538 32.4593077,6.52638462 32.4770769,6.41025 C32.4821538,6.37788462 32.4846923,6.34551923 32.4846923,6.31061538 C32.4865962,6.27380769 32.4942115,6.23890385 32.4942115,6.204 C32.4891346,6.14498077 32.472,6.08786538 32.4593077,6.03075 Z" id="Fill-1" fill="#74B63C"></path>
                    <path d="M29.5864038,13.7229231 C29.0165192,13.7229231 28.5526154,14.1868269 28.5526154,14.7567115 L28.5526154,29.8960962 C28.5526154,30.4659808 28.0918846,30.9317885 27.5213654,30.9317885 L3.09628846,30.9317885 C2.52830769,30.9317885 2.06503846,30.4659808 2.06503846,29.8960962 L2.06503846,5.4285 C2.06503846,4.85798077 2.52830769,4.39471154 3.09628846,4.39471154 L15.3100962,4.39471154 C15.8799808,4.39471154 16.3413462,3.93080769 16.3413462,3.36092308 C16.3413462,2.79103846 15.8799808,2.32713462 15.3100962,2.32713462 L3.09628846,2.32713462 C1.38853846,2.32713462 0,3.71821154 0,5.4285 L0,29.8960962 C0,31.6089231 1.38853846,32.9993654 3.09628846,32.9993654 L27.5213654,32.9993654 C29.22975,32.9993654 30.6201923,31.6089231 30.6201923,29.898 L30.6201923,14.7567115 C30.6201923,14.1868269 30.1569231,13.7229231 29.5864038,13.7229231 Z" id="Fill-3" fill="#74B63C"></path>
                </g>
            </g>
        </g>
    </g>
</svg>