<?xml version="1.0" encoding="UTF-8" standalone="no"?>
<svg width="200px" height="37px" viewBox="0 0 200 37" version="1.1" xmlns="http://www.w3.org/2000/svg" xmlns:xlink="http://www.w3.org/1999/xlink">
    <!-- Generator: Sketch 41 (35326) - http://www.bohemiancoding.com/sketch -->
    <title>Logo</title>
    <desc>Created with Sketch.</desc>
    <defs>
        <polygon id="path-1" points="0 35.4556522 199.812187 35.4556522 199.812187 0.0174168116 0 0.0174168116"></polygon>
    </defs>
    <g id="Symbols" stroke="none" stroke-width="1" fill="none" fill-rule="evenodd">
        <g id="Logo">
            <g id="Page-1">
                <g id="Group-17" transform="translate(0.000000, 0.293598)">
                    <path d="M61.7165,31.28868 C62.683375,31.9163072 64.364625,32.4182846 65.7936875,32.4182846 C68.7355625,32.4182846 70.500875,30.493727 70.500875,27.6498104 C70.500875,25.0562606 68.9880625,23.4669765 66.76025,21.7934075 C64.53275,20.2454884 61.4224375,17.6105736 61.4224375,13.971082 C61.4224375,9.70489623 64.4061875,6.56769304 68.903375,6.56769304 C70.6686875,6.56769304 72.224,7.11134638 72.8965,7.61332377 L72.0980625,10.3741994 C71.3836875,9.87222203 70.2068125,9.41192058 68.7355625,9.41192058 C65.9615,9.41192058 64.6586875,11.503493 64.6586875,13.4274287 C64.6586875,16.2299803 66.129625,17.317598 68.8193125,19.2418446 C72.224,21.6263928 73.737125,24.2196316 73.737125,27.3565238 C73.737125,32.2089719 70.2905625,35.2622012 65.7936875,35.2622012 C63.8599375,35.2622012 61.8005625,34.6351959 61.0024375,34.0495557 L61.7165,31.28868 Z" id="Fill-1" fill="#585E66"></path>
                    <path d="M85.9245625,22.7974556 C86.0089375,18.7396495 84.4539375,16.9413637 82.898625,16.9413637 C80.797375,16.9413637 79.7045625,20.036891 79.578,22.7974556 L85.9245625,22.7974556 Z M79.5364375,25.1816927 C79.578,31.3724362 82.016125,32.7110426 84.36925,32.7110426 C85.75675,32.7110426 86.933625,32.376702 87.73175,31.9160895 L88.236125,34.3003266 C87.10175,34.9279539 85.3783125,35.2622945 83.7814375,35.2622945 C78.9058125,35.2622945 76.38425,31.2887733 76.38425,25.0980298 C76.38425,18.5306478 79.1583125,14.4314768 83.234875,14.4314768 C87.3958125,14.4314768 89.034875,18.7819475 89.034875,23.3830959 C89.034875,24.136062 89.034875,24.6797153 88.9926875,25.1816927 L79.5364375,25.1816927 Z" id="Fill-3" fill="#585E66"></path>
                    <path d="M92.5224688,19.9946863 C92.5224688,17.6104492 92.3965312,16.3978037 92.3543437,14.7659107 L95.1705937,14.7659107 L95.3384063,17.1918237 L95.4224687,17.1918237 C96.3049688,15.5605527 97.9443438,14.4312591 100.088094,14.4312591 C102.903719,14.4312591 105.004969,16.5228315 105.004969,21.4169556 L105.004969,35.0117101 L101.769031,35.0117101 L101.769031,21.9606089 C101.769031,19.5763718 101.306531,17.1501478 98.9527813,17.1501478 C97.6077813,17.1501478 96.3049688,18.2797524 95.8846563,20.4546768 C95.8005938,20.9569652 95.7587187,21.5839704 95.7587187,22.2535846 L95.7587187,35.0117101 L92.5224688,35.0117101 L92.5224688,19.9946863 Z" id="Fill-5" fill="#585E66"></path>
                    <path d="M108.787094,33.0457253 L115.217406,20.5382774 C115.763656,19.4926467 116.394594,18.447016 116.856781,17.5270351 L116.856781,17.4433722 L109.585844,17.4433722 L109.585844,14.7661595 L120.429281,14.7661595 L120.429281,16.8990969 L114.082719,29.2389079 C113.536469,30.2845386 112.905844,31.3301693 112.443656,32.2507722 L112.443656,32.3344351 L120.429281,32.3344351 L120.429281,35.0116479 L108.787094,35.0116479 L108.787094,33.0457253 Z" id="Fill-7" fill="#585E66"></path>
                    <path d="M126.228813,24.8889037 C126.228813,28.2354196 126.81725,32.7945811 129.759125,32.7945811 C132.532875,32.7945811 133.07975,28.0261069 133.07975,24.8889037 C133.07975,21.7933764 132.532875,17.0249022 129.675063,17.0249022 C126.775063,17.0249022 126.228813,21.7933764 126.228813,24.8889037 M136.357563,24.8889037 C136.357563,32.7109182 132.701,35.346144 129.591,35.346144 C125.934438,35.346144 122.992563,32.041615 122.992563,24.9305796 C122.992563,17.5268796 126.312875,14.4313524 129.801313,14.4313524 C133.415688,14.4313524 136.357563,17.8198553 136.357563,24.8889037" id="Fill-9" fill="#585E66"></path>
                    <polygon id="Fill-11" fill="#7DC143" points="141.703063 6.88377707 144.930875 6.88377707 144.930875 31.9885559 155.617125 31.9885559 155.617125 35.037742 141.703063 35.037742"></polygon>
                    <mask id="mask-2" fill="white">
                        <use xlink:href="#path-1"></use>
                    </mask>
                    <g id="Clip-14"></g>
                    <path d="M159.105937,35.0379597 L162.370937,35.0379597 L162.370937,14.8204626 L159.105937,14.8204626 L159.105937,35.0379597 Z M162.742188,9.13916087 C162.779063,10.3922383 161.963125,11.394949 160.664375,11.394949 C159.514375,11.394949 158.697812,10.3922383 158.697812,9.13916087 C158.697812,7.84409652 159.55125,6.84200783 160.738438,6.84200783 C161.963125,6.84200783 162.742188,7.84409652 162.742188,9.13916087 L162.742188,9.13916087 Z" id="Fill-13" fill="#7DC143" mask="url(#mask-2)"></path>
                    <path d="M169.050781,14.8204004 L172.575781,26.1817598 C173.169531,28.0201665 173.651719,29.6909363 174.022656,31.3617062 L174.134219,31.3617062 C174.542031,29.6909363 175.061719,28.0201665 175.655781,26.1817598 L179.143281,14.8204004 L182.557031,14.8204004 L175.507031,35.0378975 L172.390469,35.0378975 L165.562969,14.8204004 L169.050781,14.8204004 Z" id="Fill-15" fill="#7DC143" mask="url(#mask-2)"></path>
                    <path d="M196.658219,22.9660255 C196.695094,20.6265745 195.804781,16.9923701 192.131344,16.9923701 C188.828844,16.9923701 187.381969,20.4175727 187.121969,22.9660255 L196.658219,22.9660255 Z M187.085094,25.5975191 C187.159469,30.5681527 189.979469,32.6149391 193.244781,32.6149391 C195.582281,32.6149391 196.991969,32.1555707 198.216344,31.5705524 L198.773219,34.2023571 C197.622906,34.7873753 195.656031,35.4557455 192.799156,35.4557455 C187.270719,35.4557455 183.968219,31.3615507 183.968219,25.2634895 C183.968219,19.1644953 187.159469,14.3608765 192.391344,14.3608765 C198.253219,14.3608765 199.812281,20.1672061 199.812281,23.8844513 C199.812281,24.6364843 199.737906,25.2215026 199.700719,25.5975191 L187.085094,25.5975191 Z" id="Fill-16" fill="#7DC143" mask="url(#mask-2)"></path>
                </g>
                <g id="Group-64" transform="translate(0.000000, 0.293598)">
                    <path d="M47.5038437,34.2843405 C48.6297813,35.1931248 50.2819687,35.0202008 51.2000937,33.8999266 C52.1135312,32.7793414 51.9454062,31.1294095 50.8194687,30.2206251 C50.3322812,29.8247037 49.7441562,29.6356069 49.1619687,29.6356069 C48.3944687,29.6356069 47.6382188,29.9640382 47.1172812,30.5997518 C46.2044688,31.720337 46.3725938,33.3705799 47.5038437,34.2843405" id="Fill-18" fill="#7EC141"></path>
                    <path d="M47.5038437,26.8798319 C48.6297813,27.7886162 50.2819687,27.6156921 51.2000937,26.4954179 C52.1135312,25.3748327 51.9454062,23.7249008 50.8194687,22.8161165 C50.3322812,22.420195 49.7441562,22.2310982 49.1619687,22.2310982 C48.3944687,22.2310982 47.6382188,22.5595295 47.1172812,23.1952432 C46.2044688,24.3158284 46.3725938,25.9660713 47.5038437,26.8798319" id="Fill-20" fill="#7EC141"></path>
                    <path d="M47.5038437,19.4752921 C48.6297813,20.3840765 50.2819687,20.2111524 51.2000937,19.0908782 C52.1135312,17.970293 51.9454062,16.3203611 50.8194687,15.4118878 C50.3322812,15.0156553 49.7441562,14.8265585 49.1619687,14.8265585 C48.3944687,14.8265585 47.6382188,15.1549898 47.1172812,15.7907034 C46.2044688,16.9112886 46.3725938,18.5615315 47.5038437,19.4752921" id="Fill-22" fill="#7EC141"></path>
                    <path d="M17.145875,34.2843405 C18.2718125,35.1931248 19.924,35.0202008 20.8424375,33.8999266 C21.7555625,32.7793414 21.5874375,31.1294095 20.4615,30.2206251 C19.9743125,29.8247037 19.3865,29.6356069 18.804,29.6356069 C18.0365,29.6356069 17.28025,29.9640382 16.7593125,30.5997518 C15.8465,31.720337 16.014625,33.3705799 17.145875,34.2843405" id="Fill-24" fill="#585E66"></path>
                    <path d="M17.145875,26.8798319 C18.2718125,27.7886162 19.924,27.6156921 20.8424375,26.4954179 C21.7555625,25.3748327 21.5874375,23.7249008 20.4615,22.8161165 C19.9743125,22.420195 19.3865,22.2310982 18.804,22.2310982 C18.0365,22.2310982 17.28025,22.5595295 16.7593125,23.1952432 C15.8465,24.3158284 16.014625,25.9660713 17.145875,26.8798319" id="Fill-26" fill="#585E66"></path>
                    <path d="M17.145875,19.4752921 C18.2718125,20.3840765 19.924,20.2111524 20.8424375,19.0908782 C21.7555625,17.970293 21.5874375,16.3203611 20.4615,15.4118878 C19.9743125,15.0156553 19.3865,14.8265585 18.804,14.8265585 C18.0365,14.8265585 17.28025,15.1549898 16.7593125,15.7907034 C15.8465,16.9112886 16.014625,18.5615315 17.145875,19.4752921" id="Fill-28" fill="#585E66"></path>
                    <path d="M9.489625,34.2843405 C10.6155625,35.1931248 12.26775,35.0202008 13.1861875,33.8999266 C14.0993125,32.7793414 13.9311875,31.1294095 12.80525,30.2206251 C12.3180625,29.8247037 11.73025,29.6356069 11.14775,29.6356069 C10.38025,29.6356069 9.624,29.9640382 9.1030625,30.5997518 C8.19025,31.720337 8.358375,33.3705799 9.489625,34.2843405" id="Fill-30" fill="#585E66"></path>
                    <path d="M9.489625,26.8798319 C10.6155625,27.7886162 12.26775,27.6156921 13.1861875,26.4954179 C14.0993125,25.3748327 13.9311875,23.7249008 12.80525,22.8161165 C12.3180625,22.420195 11.73025,22.2310982 11.14775,22.2310982 C10.38025,22.2310982 9.624,22.5595295 9.1030625,23.1952432 C8.19025,24.3158284 8.358375,25.9660713 9.489625,26.8798319" id="Fill-32" fill="#585E66"></path>
                    <path d="M9.489625,19.4752921 C10.6155625,20.3840765 12.26775,20.2111524 13.1861875,19.0908782 C14.0993125,17.970293 13.9311875,16.3203611 12.80525,15.4118878 C12.3180625,15.0156553 11.73025,14.8265585 11.14775,14.8265585 C10.38025,14.8265585 9.624,15.1549898 9.1030625,15.7907034 C8.19025,16.9112886 8.358375,18.5615315 9.489625,19.4752921" id="Fill-34" fill="#585E66"></path>
                    <path d="M9.489625,12.0707835 C10.6155625,12.9795678 12.26775,12.8066438 13.1861875,11.6863696 C14.0993125,10.5657843 13.9311875,8.91585246 12.80525,8.00737913 C12.3180625,7.61114667 11.73025,7.42204986 11.14775,7.42204986 C10.38025,7.42204986 9.624,7.75048116 9.1030625,8.38619478 C8.19025,9.50678 8.358375,11.1570229 9.489625,12.0707835" id="Fill-36" fill="#585E66"></path>
                    <path d="M0.974,34.2843405 C2.0999375,35.1931248 3.752125,35.0202008 4.6705625,33.8999266 C5.5836875,32.7793414 5.4155625,31.1294095 4.289625,30.2206251 C3.8024375,29.8247037 3.214625,29.6356069 2.632125,29.6356069 C1.864625,29.6356069 1.108375,29.9640382 0.5874375,30.5997518 C-0.325375,31.720337 -0.15725,33.3705799 0.974,34.2843405" id="Fill-38" fill="#585E66"></path>
                    <path d="M0.974,26.8798319 C2.0999375,27.7886162 3.752125,27.6156921 4.6705625,26.4954179 C5.5836875,25.3748327 5.4155625,23.7249008 4.289625,22.8161165 C3.8024375,22.420195 3.214625,22.2310982 2.632125,22.2310982 C1.864625,22.2310982 1.108375,22.5595295 0.5874375,23.1952432 C-0.325375,24.3158284 -0.15725,25.9660713 0.974,26.8798319" id="Fill-40" fill="#585E66"></path>
                    <path d="M40.54675,34.2843405 C41.6726875,35.1931248 43.324875,35.0202008 44.243,33.8999266 C45.1564375,32.7793414 44.9883125,31.1294095 43.862375,30.2206251 C43.3751875,29.8247037 42.7870625,29.6356069 42.204875,29.6356069 C41.437375,29.6356069 40.681125,29.9640382 40.1601875,30.5997518 C39.247375,31.720337 39.4155,33.3705799 40.54675,34.2843405" id="Fill-42" fill="#7EC141"></path>
                    <path d="M40.54675,26.8798319 C41.6726875,27.7886162 43.324875,27.6156921 44.243,26.4954179 C45.1564375,25.3748327 44.9883125,23.7249008 43.862375,22.8161165 C43.3751875,22.420195 42.7870625,22.2310982 42.204875,22.2310982 C41.437375,22.2310982 40.681125,22.5595295 40.1601875,23.1952432 C39.247375,24.3158284 39.4155,25.9660713 40.54675,26.8798319" id="Fill-44" fill="#7EC141"></path>
                    <path d="M40.54675,19.4752921 C41.6726875,20.3840765 43.324875,20.2111524 44.243,19.0908782 C45.1564375,17.970293 44.9883125,16.3203611 43.862375,15.4118878 C43.3751875,15.0156553 42.7870625,14.8265585 42.204875,14.8265585 C41.437375,14.8265585 40.681125,15.1549898 40.1601875,15.7907034 C39.247375,16.9112886 39.4155,18.5615315 40.54675,19.4752921" id="Fill-46" fill="#7EC141"></path>
                    <path d="M40.54675,12.0707835 C41.6726875,12.9795678 43.324875,12.8066438 44.243,11.6863696 C45.1564375,10.5657843 44.9883125,8.91585246 43.862375,8.00737913 C43.3751875,7.61114667 42.7870625,7.42204986 42.204875,7.42204986 C41.437375,7.42204986 40.681125,7.75048116 40.1601875,8.38619478 C39.247375,9.50678 39.4155,11.1570229 40.54675,12.0707835" id="Fill-48" fill="#7EC141"></path>
                    <path d="M25.114625,34.2843405 C26.2405625,35.1931248 27.89275,35.0202008 28.8111875,33.8999266 C29.7243125,32.7793414 29.5561875,31.1294095 28.43025,30.2206251 C27.9430625,29.8247037 27.35525,29.6356069 26.77275,29.6356069 C26.00525,29.6356069 25.249,29.9640382 24.7280625,30.5997518 C23.81525,31.720337 23.983375,33.3705799 25.114625,34.2843405" id="Fill-50" fill="#7EC141"></path>
                    <path d="M25.114625,26.8798319 C26.2405625,27.7886162 27.89275,27.6156921 28.8111875,26.4954179 C29.7243125,25.3748327 29.5561875,23.7249008 28.43025,22.8161165 C27.9430625,22.420195 27.35525,22.2310982 26.77275,22.2310982 C26.00525,22.2310982 25.249,22.5595295 24.7280625,23.1952432 C23.81525,24.3158284 23.983375,25.9660713 25.114625,26.8798319" id="Fill-52" fill="#7EC141"></path>
                    <path d="M25.114625,19.4752921 C26.2405625,20.3840765 27.89275,20.2111524 28.8111875,19.0908782 C29.7243125,17.970293 29.5561875,16.3203611 28.43025,15.4118878 C27.9430625,15.0156553 27.35525,14.8265585 26.77275,14.8265585 C26.00525,14.8265585 25.249,15.1549898 24.7280625,15.7907034 C23.81525,16.9112886 23.983375,18.5615315 25.114625,19.4752921" id="Fill-54" fill="#7EC141"></path>
                    <path d="M25.114625,12.0707835 C26.2405625,12.9795678 27.89275,12.8066438 28.8111875,11.6863696 C29.7243125,10.5657843 29.5561875,8.91585246 28.43025,8.00737913 C27.9430625,7.61114667 27.35525,7.42204986 26.77275,7.42204986 C26.00525,7.42204986 25.249,7.75048116 24.7280625,8.38619478 C23.81525,9.50678 23.983375,11.1570229 25.114625,12.0707835" id="Fill-56" fill="#7EC141"></path>
                    <path d="M25.114625,4.66627484 C26.2405625,5.57505919 27.89275,5.40213513 28.8111875,4.28186093 C29.7243125,3.16127571 29.5561875,1.51134383 28.43025,0.602870493 C27.9430625,0.206949043 27.35525,0.0175412174 26.77275,0.0175412174 C26.00525,0.0175412174 25.249,0.345972522 24.7280625,0.981686145 C23.81525,2.10227136 23.983375,3.75251426 25.114625,4.66627484" id="Fill-58" fill="#7EC141"></path>
                    <path d="M33.474,34.2843405 C34.5999375,35.1931248 36.252125,35.0202008 37.1705625,33.8999266 C38.0836875,32.7793414 37.9155625,31.1294095 36.789625,30.2206251 C36.3024375,29.8247037 35.714625,29.6356069 35.132125,29.6356069 C34.364625,29.6356069 33.608375,29.9640382 33.0874375,30.5997518 C32.174625,31.720337 32.34275,33.3705799 33.474,34.2843405" id="Fill-60" fill="#7EC141"></path>
                    <path d="M33.474,26.8798319 C34.5999375,27.7886162 36.252125,27.6156921 37.1705625,26.4954179 C38.0836875,25.3748327 37.9155625,23.7249008 36.789625,22.8161165 C36.3024375,22.420195 35.714625,22.2310982 35.132125,22.2310982 C34.364625,22.2310982 33.608375,22.5595295 33.0874375,23.1952432 C32.174625,24.3158284 32.34275,25.9660713 33.474,26.8798319" id="Fill-62" fill="#7EC141"></path>
                </g>
            </g>
        </g>
    </g>
</svg>