<?xml version="1.0" encoding="UTF-8" standalone="no"?>
<svg width="20px" height="20px" viewBox="0 0 20 20" version="1.1" xmlns="http://www.w3.org/2000/svg" xmlns:xlink="http://www.w3.org/1999/xlink">
    <!-- Generator: Sketch 41 (35326) - http://www.bohemiancoding.com/sketch -->
    <title>clock-circular-outline</title>
    <desc>Created with Sketch.</desc>
    <defs></defs>
    <g id="Symbols" stroke="none" stroke-width="1" fill="none" fill-rule="evenodd">
        <g id="Custom-Cal-Min" transform="translate(-277.000000, -74.000000)" fill="#7EC344">
            <g transform="translate(6.000000, 0.000000)" id="clock-circular-outline">
                <g transform="translate(271.000000, 74.000000)">
                    <path d="M9.99987134,0 C4.48595726,0 0,4.48595726 0,9.99987134 C0,15.5140427 4.48595726,20 9.99987134,20 C15.5140427,20 20,15.5140427 20,9.99987134 C20,4.48595726 15.5140427,0 9.99987134,0 Z M9.99987134,17.8720393 C5.65980933,17.8720393 2.12796068,14.3409626 2.12796068,9.99987134 C2.12796068,5.65878009 5.65980933,2.12796068 9.99987134,2.12796068 C14.3409626,2.12796068 17.8730686,5.65878009 17.8730686,9.99987134 C17.8730686,14.3409626 14.3409626,17.8720393 9.99987134,17.8720393 Z" id="Fill-1"></path>
                    <path d="M14.7705493,10.4158515 L10.248968,10.4158515 L10.248968,5.16946065 C10.248968,4.72826416 9.8790087,4.37026045 9.42076657,4.37026045 C8.96381891,4.37026045 8.59256511,4.72826416 8.59256511,5.16946065 L8.59256511,11.2150517 C8.59256511,11.6572475 8.96381891,12.0145018 9.42076657,12.0145018 L14.7705493,12.0145018 C15.2287914,12.0145018 15.5997863,11.6572475 15.5997863,11.2150517 C15.5997863,10.7741051 15.2287914,10.4158515 14.7705493,10.4158515 Z" id="Fill-2"></path>
                </g>
            </g>
        </g>
    </g>
</svg>