<?xml version="1.0" encoding="UTF-8" standalone="no"?>
<svg width="34px" height="35px" viewBox="0 0 34 35" version="1.1" xmlns="http://www.w3.org/2000/svg" xmlns:xlink="http://www.w3.org/1999/xlink">
    <!-- Generator: Sketch 41 (35326) - http://www.bohemiancoding.com/sketch -->
    <title>menu-circular-button</title>
    <desc>Created with Sketch.</desc>
    <defs></defs>
    <g id="Symbols" stroke="none" stroke-width="1" fill="none" fill-rule="evenodd">
        <g id="Header" transform="translate(-15.000000, -13.000000)" fill="#585E66">
            <path d="M31.9578003,13.435121 C22.5879992,13.435121 15,21.0704061 15,30.4985967 C15,39.9295939 22.5879992,47.564879 31.9578003,47.564879 C41.3303906,47.564879 48.9183898,39.9295939 48.9183898,30.4985967 C48.9183898,21.0704061 41.3303906,13.435121 31.9578003,13.435121 Z M31.9578003,45.7691669 C23.5681576,45.7691669 16.7845912,38.9427662 16.7845912,30.4985967 C16.7845912,22.0566725 23.5681576,15.2308331 31.9578003,15.2308331 C40.3496744,15.2308331 47.1337986,22.0566725 47.1337986,30.4985967 C47.1337986,38.9427662 40.3496744,45.7691669 31.9578003,45.7691669 Z M40.6615176,30.4985967 C40.6615176,30.9942559 40.2604169,31.3978561 39.7678273,31.3978561 L24.1477732,31.3978561 C23.6579729,31.3978561 23.2568722,30.9942559 23.2568722,30.4985967 C23.2568722,30.0057441 23.6579729,29.6021439 24.1477732,29.6021439 L39.7678273,29.6021439 C40.2604169,29.6021439 40.6615176,30.0057441 40.6615176,30.4985967 Z M40.6615176,35.8885399 C40.6615176,36.3819537 40.2604169,36.7877993 39.7678273,36.7877993 L24.1477732,36.7877993 C23.6579729,36.7877993 23.2568722,36.3819537 23.2568722,35.8885399 C23.2568722,35.395126 23.6579729,34.9892804 24.1477732,34.9892804 L39.7678273,34.9892804 C40.2604169,34.9892804 40.6615176,35.395126 40.6615176,35.8885399 Z M40.6615176,25.1114601 C40.6615176,25.604874 40.2604169,26.0079129 39.7678273,26.0079129 L24.1477732,26.0079129 C23.6579729,26.0079129 23.2568722,25.604874 23.2568722,25.1114601 C23.2568722,24.6180463 23.6579729,24.2122007 24.1477732,24.2122007 L39.7678273,24.2122007 C40.2604169,24.2122007 40.6615176,24.6180463 40.6615176,25.1114601 Z" id="menu-circular-button"></path>
        </g>
    </g>
</svg>