<?xml version="1.0" encoding="UTF-8" standalone="no"?>
<svg width="35px" height="35px" viewBox="0 0 35 35" version="1.1" xmlns="http://www.w3.org/2000/svg" xmlns:xlink="http://www.w3.org/1999/xlink">
    <!-- Generator: Sketch 41 (35326) - http://www.bohemiancoding.com/sketch -->
    <title>Group 2</title>
    <desc>Created with Sketch.</desc>
    <defs></defs>
    <g id="Symbols" stroke="none" stroke-width="1" fill="none" fill-rule="evenodd">
        <g id="The-Card-Basic" transform="translate(-268.000000, -627.000000)">
            <g id="The-Card">
                <g id="Maintenance-Icon" transform="translate(269.000000, 623.000000)">
                    <g id="Group-2" transform="translate(0.000000, 5.000000)">
                        <polygon id="Path-3" fill="#CFEED1" points="1.76747229 31.6011424 22.2624872 10.478586 26.9517698 12.3501922 31.9260254 8.00798562 32.8425465 9.6186588 30.847235 16.935302 25.8734802 20.1416234 19.9491478 20.1416234 11.355385 28.3792952 6.44773997 32.4941244 3.58799374 32.8737545"></polygon>
                        <path d="M32.3081158,6.94727263 L26.9008494,12.3549448 L22.1704887,10.664912 L20.4804559,5.93495705 L25.8881281,0.52728492 C22.3406281,-0.659768358 18.2694559,0.156981642 15.4440338,2.98226853 C12.6710871,5.75535049 11.8331035,9.72819885 12.9250789,13.2293095 C12.7782018,13.3449448 12.6356527,13.4696415 12.4998658,13.6048874 L1.39441906,24.7108751 C-0.464806352,26.5695595 -0.464806352,29.5824325 1.39441906,31.4415226 C3.25296824,33.3000718 6.26584119,33.3000718 8.12493135,31.4415226 L19.2305133,20.3355349 C19.366165,20.199748 19.4908617,20.0570636 19.6066322,19.9101866 C23.1072018,21.0022972 27.0800502,20.1643136 29.8529969,17.3912316 C32.6778781,14.5659448 33.4951691,10.4953136 32.3081158,6.94727263 Z" id="Fill-1" stroke="#74B63C" stroke-width="2"></path>
                    </g>
                </g>
            </g>
        </g>
    </g>
</svg>