<?xml version="1.0" encoding="UTF-8" standalone="no"?>
<svg width="129px" height="129px" viewBox="0 0 129 129" version="1.1" xmlns="http://www.w3.org/2000/svg" xmlns:xlink="http://www.w3.org/1999/xlink">
    <!-- Generator: Sketch 41 (35326) - http://www.bohemiancoding.com/sketch -->
    <title>plus</title>
    <desc>Created with Sketch.</desc>
    <defs></defs>
    <g id="Dashboard" stroke="none" stroke-width="1" fill="none" fill-rule="evenodd">
        <g id="1170px" transform="translate(-716.000000, -432.000000)" fill="#BFBFBF">
            <g id="Add-Location-Center" transform="translate(595.000000, 189.000000)">
                <g id="plus" transform="translate(121.000000, 243.000000)">
                    <path d="M64.2517902,0.501136364 C28.8254269,0.501136364 0,29.2924773 0,64.6769489 C0,100.06142 28.8254269,128.852761 64.2517902,128.852761 C99.6781534,128.852761 128.50358,100.06142 128.50358,64.6769489 C128.50358,29.2924773 99.6781534,0.501136364 64.2517902,0.501136364 Z M64.2517902,126.629411 C30.0518217,126.629411 2.22598295,98.8364759 2.22598295,64.6769489 C2.22598295,30.5174218 30.0518217,2.7244871 64.2517902,2.7244871 C98.4517587,2.7244871 126.277597,30.5174218 126.277597,64.6769489 C126.277597,98.8364759 98.4517587,126.629411 64.2517902,126.629411 Z" id="Fill-1"></path>
                    <path d="M95.1405889,62.2056818 L66.725983,62.2056818 L66.725983,35.0525966 C66.725983,33.6920114 65.6139862,32.5813295 64.2517902,32.5813295 C62.8865053,32.5813295 61.7775974,33.6920114 61.7775974,35.0525966 L61.7775974,62.2056818 L33.3629915,62.2056818 C31.9977066,62.2056818 30.8887987,63.3132784 30.8887987,64.6769489 C30.8887987,66.0375341 31.9977066,67.1482159 33.3629915,67.1482159 L61.7775974,67.1482159 L61.7775974,96.757142 C61.7775974,98.1208125 62.8865053,99.2284091 64.2517902,99.2284091 C65.6139862,99.2284091 66.725983,98.1208125 66.725983,96.757142 L66.725983,67.1482159 L95.1405889,67.1482159 C96.5027849,67.1482159 97.6147817,66.0375341 97.6147817,64.6769489 C97.6147817,63.3132784 96.5027849,62.2056818 95.1405889,62.2056818 Z" id="Fill-2"></path>
                </g>
            </g>
        </g>
    </g>
</svg>