<?xml version="1.0" encoding="UTF-8" standalone="no"?>
<svg width="40px" height="35px" viewBox="0 0 40 35" version="1.1" xmlns="http://www.w3.org/2000/svg" xmlns:xlink="http://www.w3.org/1999/xlink">
    <!-- Generator: Sketch 41 (35326) - http://www.bohemiancoding.com/sketch -->
    <title>repeat</title>
    <desc>Created with Sketch.</desc>
    <defs></defs>
    <g id="Comparison" stroke="none" stroke-width="1" fill="none" fill-rule="evenodd">
        <g id="1170px" transform="translate(-781.000000, -232.000000)" fill="#74B63C">
            <g id="repeat" transform="translate(781.000000, 232.000000)">
                <g id="Capa_1">
                    <path d="M0.8,17.1022727 C0.3576,17.1022727 0,16.7467045 0,16.3068182 C0,10.605 4.6656,5.96590909 10.4,5.96590909 L30.4,5.96590909 C30.8424,5.96590909 31.2,6.32147727 31.2,6.76136364 C31.2,7.20125 30.8424,7.55681818 30.4,7.55681818 L10.4,7.55681818 C5.548,7.55681818 1.6,11.4823864 1.6,16.3068182 C1.6,16.7467045 1.2424,17.1022727 0.8,17.1022727 Z" id="Shape"></path>
                    <polygon id="Shape" points="30.4 13.125 39.2 6.76136364 30.4 0.397727273"></polygon>
                    <path d="M29.6,29.0340909 L9.6,29.0340909 C9.1576,29.0340909 8.8,28.6785227 8.8,28.2386364 C8.8,27.79875 9.1576,27.4431818 9.6,27.4431818 L29.6,27.4431818 C34.452,27.4431818 38.4,23.5176136 38.4,18.6931818 C38.4,18.2532955 38.7576,17.8977273 39.2,17.8977273 C39.6424,17.8977273 40,18.2532955 40,18.6931818 C40,24.395 35.3344,29.0340909 29.6,29.0340909 Z" id="Shape"></path>
                    <polygon id="Shape" points="9.6 21.875 0.8 28.2386364 9.6 34.6022727"></polygon>
                </g>
            </g>
        </g>
    </g>
</svg>